<svg xmlns="http://www.w3.org/2000/svg" width="289.936" height="77.702" viewBox="0 0 289.936 77.702">
  <path id="Deliveroo-Logo.wine" d="M105.895,58.205h6.61l-1.1-5.128V22.5h-6.323V36.449a9.819,9.819,0,0,0-7.607-3.5c-6.324,0-11.22,5.222-11.22,12.89s4.9,12.89,11.22,12.89a9.861,9.861,0,0,0,7.75-3.643l.665,3.115Zm124.992-18.4a6.033,6.033,0,0,1,3.565,1.1l3-6.755a8.615,8.615,0,0,0-4.564-1.246,7.7,7.7,0,0,0-6.75,3.69l-.667-3.118h-6.514L220,38.316V58.2h6.32V42.438a4.938,4.938,0,0,1,4.565-2.635v0Zm18.54,12.266a6.013,6.013,0,0,1-6.37-6.23c0-3.833,2.712-6.228,6.37-6.228,3.71,0,6.373,2.4,6.373,6.228a5.988,5.988,0,0,1-6.372,6.23ZM92.392,45.841c0-3.833,2.71-6.228,6.37-6.228,3.71,0,6.372,2.4,6.372,6.228a6.373,6.373,0,0,1-12.742,0Zm185.04,6.23a6.012,6.012,0,0,1-6.37-6.23c0-3.833,2.71-6.228,6.37-6.228,3.708,0,6.37,2.4,6.37,6.228A5.987,5.987,0,0,1,277.432,52.071ZM127.86,39.229c3.28,0,5.42,1.533,6.085,4.36h-12.17c.713-2.827,2.852-4.36,6.084-4.36Zm75.64,0c3.282,0,5.422,1.533,6.087,4.36h-12.17c.713-2.827,2.852-4.36,6.084-4.36ZM172.647,58.205h10.174l6.61-24.726h-6.894l-4.848,20.03-4.85-20.03h-6.8l6.61,24.725Zm-16.308,0h6.32V33.478h-6.32Zm-27.51.458a18.3,18.3,0,0,0,9.89-2.828L136.3,50.373a15.932,15.932,0,0,1-7.37,1.917c-3.327,0-5.657-1.294-6.656-3.69h17.78a13.839,13.839,0,0,0,.287-2.923c0-7.667-5.277-12.794-12.362-12.794-7.13,0-12.36,5.175-12.36,12.89,0,7.858,5.182,12.89,13.217,12.89ZM289.936,45.841c0-7.667-5.325-12.89-12.5-12.89s-12.5,5.223-12.5,12.89,5.324,12.89,12.5,12.89,12.5-5.222,12.5-12.89Zm-85.578,12.89a18.312,18.312,0,0,0,9.89-2.827l-2.427-5.465a15.928,15.928,0,0,1-7.37,1.916c-3.327,0-5.657-1.292-6.656-3.69h17.782a13.845,13.845,0,0,0,.284-2.922c0-7.667-5.278-12.794-12.362-12.794-7.13,0-12.36,5.174-12.36,12.89,0,7.858,5.183,12.89,13.218,12.89v0Zm45.07,0c7.18,0,12.5-5.222,12.5-12.89s-5.324-12.89-12.5-12.89-12.5,5.223-12.5,12.89,5.325,12.89,12.5,12.89ZM144.358,58.2h6.322V22.5h-6.323V58.2Zm15.165-28.13a4.026,4.026,0,1,0-3.993-4.026,3.906,3.906,0,0,0,3.993,4.026ZM50.9,0l-3.62,34.262L41.1,5.377,21.74,9.471l6.172,28.884L0,44.255,4.93,67.328,54.014,77.7,65.239,52.63,70.581,2.06,50.893,0l0,0ZM35.385,49.7c-1.012.922-2.35.837-3.77.367s-2.047-2.173-1.51-4.234c.4-1.53,2.283-1.76,3.225-1.776a2.421,2.421,0,0,1,1.035.212c.666.3,1.794.94,2.023,1.916a3.388,3.388,0,0,1-1,3.512h0v0Zm14.21,1.59c-.735,1.27-2.665,1.438-4.564.514-1.28-.624-1.27-2.212-1.13-3.18a2.992,2.992,0,0,1,.62-1.444,3.123,3.123,0,0,1,2.1-1.35,3.692,3.692,0,0,1,3.365,1.76c.7,1.154.35,2.427-.387,3.7Z" fill="#00ccbc"/>
</svg>
