<?xml version="1.0" encoding="utf-8"?>
<!-- Generator: Adobe Illustrator 24.1.3, SVG Export Plug-In . SVG Version: 6.00 Build 0)  -->
<svg version="1.1" id="svg1023" xmlns="http://www.w3.org/2000/svg" xmlns:xlink="http://www.w3.org/1999/xlink" x="0px" y="0px"
	 viewBox="0 0 1025 271" style="enable-background:new 0 0 1025 271;" xml:space="preserve">
<style type="text/css">
	.st0{fill:#D70F64;}
</style>
<g id="layer1" transform="translate(73.45779 -205.30109)">
	<g id="g1061" transform="translate(-117.72258 203.5813) scale(.26458)">
		<g id="g1045">
			<path id="path1027" class="st0" d="M1118.3,405.1h50.1v-48.1c0-58.1,32-96.1,96.1-96.1l32,6V325l-34-6c-20,0-28,12-28,32v54.1
				h64.1v58.1h-64.1v240.3h-64.1V463.2h-52.1V405.1z"/>
			<path id="path1029" class="st0" d="M1460.8,399.1c82.1,0,156.2,64.1,156.2,156.2s-72.1,156.2-156.2,156.2
				c-84.1,0-156.2-64.1-156.2-156.2C1304.6,461.2,1378.7,399.1,1460.8,399.1z M1460.8,653.5c60.1,0,92.1-44.1,92.1-98.1
				s-32-98.1-92.1-98.1c-60.1,0-92.1,44.1-92.1,98.1C1368.7,607.4,1400.7,653.5,1460.8,653.5z"/>
			<path id="path1031" class="st0" d="M1799.3,399.1c82.1,0,156.2,64.1,156.2,156.2s-72.1,156.2-156.2,156.2
				c-84.1,0-156.2-64.1-156.2-156.2C1645,461.2,1717.1,399.1,1799.3,399.1z M1799.3,653.5c60.1,0,92.1-44.1,92.1-98.1
				s-32-98.1-92.1-98.1c-60.1,0-92.1,44.1-92.1,98.1C1707.1,607.4,1739.2,653.5,1799.3,653.5z"/>
			<path id="path1033" class="st0" d="M2287.9,703.5h-58.1l-6-26l-4-4l-4,4c-20,20-50.1,32-82.1,32c-82.1,0-152.2-64.1-152.2-156.2
				s70.1-156.2,152.2-156.2c32,0,64.1,12,82.1,32l4,4l4-4V262.9h64.1L2287.9,703.5z M2137.7,455.2c-60.1,0-92.1,44.1-92.1,98.1
				s32,98.1,92.1,98.1c54.1,0,92.1-44.1,92.1-98.1C2229.8,501.3,2191.8,455.2,2137.7,455.2z"/>
			<path id="path1035" class="st0" d="M2352,405.1h58.1l6,26l4,4l4-4c20-20,50.1-32,82.1-32c82.1,0,152.2,64.1,152.2,156.2
				s-70.1,156.2-152.2,156.2c-32,0-64.1-12-82.1-32l-4-4l-4,4v160.2H2354V405.1H2352z M2500.2,653.5c60.1,0,92.1-44.1,92.1-98.1
				s-32-98.1-92.1-98.1c-54.1,0-92.1,44.1-92.1,98.1C2408.1,607.4,2446.1,653.5,2500.2,653.5z"/>
			<path id="path1037" class="st0" d="M2816.7,517.3h52.1v-14c0-36-24-52.1-58.1-52.1c-28,0-46.1,14-56.1,40.1l-56.1-12
				c12-50.1,56.1-82.1,114.2-82.1c80.1,0,120.2,40.1,120.2,118.2v186.3h-52.1l-6-40.1c-20,30-52.1,44.1-94.1,44.1
				c-54.1,0-92.1-32-92.1-92.1C2686.5,555.3,2738.5,517.3,2816.7,517.3L2816.7,517.3z M2788.6,653.5c20,0,40.1-6,54.1-20
				c16-14,24-32,24-56.1v-6h-54.1c-38.1,0-62.1,18-62.1,46.1C2750.6,637.5,2764.6,653.5,2788.6,653.5z"/>
			<path id="path1039" class="st0" d="M2988.9,405.1h58.1l6,26l4,4l4-4c12-20,44.1-32,70.1-32c76.1,0,120.2,50.1,120.2,120.2v184.3
				h-64.1V519.3c-2-40.1-22-64.1-64.1-64.1c-38.1,0-68.1,30-70.1,68.1v180.2h-64.1L2988.9,405.1z"/>
			<path id="path1041" class="st0" d="M3593.7,703.5h-58.1l-6-26l-4-4l-4,4c-20,20-50.1,32-82.1,32c-82.1,0-152.2-64.1-152.2-156.2
				s70.1-156.2,152.2-156.2c32,0,64.1,12,82.1,32l4,4l4-4V262.9h64.1L3593.7,703.5z M3445.5,455.2c-60.1,0-92.1,44.1-92.1,98.1
				s32,98.1,92.1,98.1c54.1,0,92.1-44.1,92.1-98.1C3537.6,501.3,3499.6,455.2,3445.5,455.2z"/>
			<path id="path1043" class="st0" d="M3776,517.3h52.1v-14c0-36-24-52.1-58.1-52.1c-28,0-46.1,14-56.1,40.1l-56.1-12
				c12-50.1,56.1-82.1,114.2-82.1c80.1,0,120.2,40.1,120.2,118.2v186.3h-52.1l-6-40.1c-20,30-52.1,44.1-94.1,44.1
				c-54.1,0-92.1-32-92.1-92.1C3645.8,555.3,3695.9,517.3,3776,517.3L3776,517.3z M3747.9,653.5c20,0,40.1-6,54.1-20
				c16-14,24-32,24-56.1v-6H3772c-38.1,0-62.1,18-62.1,46.1C3709.9,637.5,3723.9,653.5,3747.9,653.5z"/>
		</g>
		<g id="g1059">
			<path id="path1047" class="st0" d="M675.7,609.4c36,0,66.1-26,66.1-58.1H609.6C609.6,583.4,637.7,609.4,675.7,609.4z"/>
			<g id="g1057">
				<path id="path1049" class="st0" d="M898,333c16-12,24-32,24-54.1c0-40.1-32-70.1-72.1-70.1c-26,0-48.1,12-60.1,32
					c-36-18-76.1-26-116.2-26c-42.1,0-82.1,10-116.2,26c-12-20-34-32-60.1-32c-40.1,0-72.1,32-72.1,70.1c0,22,10,40.1,24,54.1
					c-30,44.1-46.1,94.1-46.1,150.2c0,148.2,120.2,270.4,270.4,270.4c148.2,0,270.4-120.2,270.4-270.4
					C944.1,427.2,928.1,375.1,898,333L898,333z M675.7,731.6c-136.2,0-248.3-112.2-248.3-248.3c0-52.1,16-100.1,42.1-140.2
					c24-36,58.1-66.1,98.1-84.1c32-16,70.1-24,108.1-24s76.1,8,108.1,24C823.9,279,856,307,882,343c26,40.1,42.1,88.1,42.1,140.2
					C924.1,619.4,811.9,731.6,675.7,731.6z"/>
				<path id="path1051" class="st0" d="M675.7,535.3c4,2,46.1-14,46.1-34c0-12-34-14-46.1-14c-12,0-46.1,2-46.1,14
					C627.6,521.3,671.7,537.3,675.7,535.3z"/>
				<path id="path1053" class="st0" d="M831.9,367.1c-24-16-76.1-24-96.1,2c0,0-26,28,0,56.1s44.1,56.1,50.1,78.1c6,24,16,32,34,32
					s54.1-28,60.1-74.1C884,415.1,856,381.1,831.9,367.1z M777.9,425.2c-8,0-14-6-14-14c0-8,6-14,14-14s14,6,14,14
					C791.9,419.2,785.9,425.2,777.9,425.2z"/>
				<path id="path1055" class="st0" d="M613.6,369.1c-20-26-72.1-18-96.1-2c-24,16-52.1,48.1-48.1,94.1c4,46.1,40.1,74.1,60.1,74.1
					c18,0,28-10,34-32c6-24,26-50.1,50.1-78.1C639.7,395.1,613.6,369.1,613.6,369.1z M575.6,425.2c-8,0-14-6-14-14c0-8,6-14,14-14
					c8,0,14,6,14,14C589.6,419.2,583.6,425.2,575.6,425.2z"/>
			</g>
		</g>
	</g>
</g>
</svg>
