<svg id="Layer_1" data-name="Layer 1" xmlns="http://www.w3.org/2000/svg" viewBox="0 0 310.7 57.81"><defs><style>.cls-1{fill:#00a83b;fill-rule:evenodd;}</style></defs><path class="cls-1" d="M480,177.49c0-4.61-.38-9.51,4.19-12.62,6.13-4.17,15.81-.79,15.81,7.5,0,3.63.37,6.36-.84,9.4a10.11,10.11,0,0,1-1.83,3,10.36,10.36,0,0,1-11.73,2,8.48,8.48,0,0,1-2.89-2.07,11.16,11.16,0,0,1-2.71-7.21Zm20-19.21c-.61-.41-.89-.87-1.66-1.38a15.2,15.2,0,0,0-2.07-1.13c-4.3-2-10.6-1.26-14.81.45-6.24,2.54-10.27,9.47-10.27,16.79,0,4.69-.28,8.16,1.56,12.53,4.28,10.19,16.1,13,25.29,9.35a15.59,15.59,0,0,0,2.93-1.55,15.32,15.32,0,0,0,3.64-3.24,9,9,0,0,0,.93-1.31,19.41,19.41,0,0,0,3.27-10.66V140H500Z" transform="translate(-198.15 -138.91)"/><path class="cls-1" d="M406.4,187.89a12,12,0,0,1-4.25-.86c-3.51-1.39-6-5.5-6-9.54,0-4.22-.37-8.23,2.76-11.33,6.44-6.38,17.57-2.5,17.57,7.65,0,3.79.06,7.94-2.68,10.77a10,10,0,0,1-3,2.29,12.22,12.22,0,0,1-4.42,1Zm-19-15c0,6.31-.27,10.07,3.11,15.62,4.66,7.63,16.15,9.81,24.1,6.3a16.66,16.66,0,0,0,3.11-1.69A13,13,0,0,0,419,192a16.28,16.28,0,0,0,4.9-7.1c2.07-6,2.14-16.55-1.37-22a17.29,17.29,0,0,0-3.1-3.78c-.53-.41-.64-.63-1.22-1-4.85-3.25-7.57-3.55-13.42-3.55a18.45,18.45,0,0,0-12.45,5.32A19.57,19.57,0,0,0,387.35,172.85Z" transform="translate(-198.15 -138.91)"/><path class="cls-1" d="M448,187.89a9.91,9.91,0,0,1-9.31-6c-1.21-3-.93-5.08-.93-8.35,0-13.75,20.33-14.07,20.33.32,0,2.75.15,4.86-.74,7.42a10.68,10.68,0,0,1-1.94,3.35,10,10,0,0,1-7.41,3.31Zm-19-15v5c0,10.51,7.67,18.57,18.57,18.57a20.63,20.63,0,0,0,8.64-1.61,15.38,15.38,0,0,0,4.45-2.75c5.76-5,6.28-10.94,6.28-18.21a20,20,0,0,0-3.66-12.19,16.16,16.16,0,0,0-6.31-5.21c-4.87-2.43-12.74-2.45-17.67-.16a16.71,16.71,0,0,0-8.79,9.14A21,21,0,0,0,429,172.85Z" transform="translate(-198.15 -138.91)"/><path class="cls-1" d="M354.86,146.6v48.5c0,.37.11.48.48.48h8.16c.37,0,.48-.11.48-.48V176.37h18.09v-8.48H364V154.6h20v-8c0-.37-.11-.48-.48-.48H355.34C355,146.12,354.86,146.23,354.86,146.6Z" transform="translate(-198.15 -138.91)"/><path class="cls-1" d="M198.15,170.45c0,6.25.2,8.92,3.1,14.35a16.57,16.57,0,0,0,1.09,1.78,25.31,25.31,0,0,0,9.26,7.88c6.51,3.29,16.25,2.9,22.53-.52a18.17,18.17,0,0,0,3.68-2.4c.43-.4,2.28-1.83,2.28-2.52V169.17H220.88V173h15.37v14.72c0,.69-1.74,1.8-2.33,2.16a17.5,17.5,0,0,1-3.09,1.55c-8,2.89-17.09,1.67-23.2-4.39a20.15,20.15,0,0,1-5.64-13.4c0-4.06.09-7.44,2.21-10.92l4.33-5.59c5.65-4.52,9-5.74,16.51-5.74a25.5,25.5,0,0,1,5.73.68l3.53,1.27c.36.17.75.4,1.15.61v-4.32c-1.67-.39-1.43-.79-5.42-1.47-5.45-.92-11.72-.51-16.56,1.58a25.56,25.56,0,0,0-7.35,4.65,22.24,22.24,0,0,0-2.9,3,20.79,20.79,0,0,0-1.29,1.75c-.46.69-.72,1.17-1.15,1.89A22.16,22.16,0,0,0,198.15,170.45Z" transform="translate(-198.15 -138.91)"/><path class="cls-1" d="M267.62,172.53c0,4.86-.39,8.2,1.81,12.59a20.26,20.26,0,0,0,3.8,5.17c4.49,3.91,9.35,6.17,15.82,5,1.11-.21,1.95-.64,2.58-.78v-3.84c-4,.94-6.21,2.1-11.37-.16a12.43,12.43,0,0,1-2.27-1.25,15.65,15.65,0,0,1-3.62-3.42c-3.42-4.58-2.91-7.81-2.91-13.26a14.58,14.58,0,0,1,1.44-5.28c1.94-4.18,7.31-8.17,12.33-8.17,4.31,0,7.1.79,10.29,3.47a13.93,13.93,0,0,1,5.08,10.78v22.25h3.84V173.17a17.42,17.42,0,0,0-1.71-7.1,16.51,16.51,0,0,0-3.12-4.72,18.23,18.23,0,0,0-12.78-6.11h-1.6C276,155.24,267.62,164.23,267.62,172.53Z" transform="translate(-198.15 -138.91)"/><path class="cls-1" d="M306.84,176.85c.54-.36,3.91-4.72,4.52-5.41l4.72-5.19c4.33-4.33,7.13-7.17,14-7.17a14.11,14.11,0,0,1,9.51,4.26l.15.16c4.25,4.59,4.27,7.66,4.27,13.67,0,13.79-18.16,20.22-26.48,8.23a11.92,11.92,0,0,1-1.86-4.23c-.47.13-.49.34-.77.67l-.64.79c-.16.19-1.31,1.5-1.31,1.58,0,2.37,3.53,6.44,5.79,8,13.15,8.91,29.11-1,29.11-15.34v-3.2a19.28,19.28,0,0,0-10.35-16.55,17.55,17.55,0,0,0-17.92,1.25l-2.4,1.76a47.64,47.64,0,0,0-5.47,5.25c-.3.33-.3.4-.57.72s-.4.4-.68.75c-.42.53-.8,1-1.23,1.49C305.94,172,306.84,171.44,306.84,176.85Z" transform="translate(-198.15 -138.91)"/><path class="cls-1" d="M204.55,171.57v1.28a17.51,17.51,0,0,0,17.29,17.44,22.77,22.77,0,0,0,9.61-1.91c.49-.25,2.08-1.17,2.08-1.77v-11H220.88v3.84H230V185c-2.94.69-3.54,1.44-8,1.44a13.51,13.51,0,0,1-13.6-13.76v-1.44a13.38,13.38,0,0,1,4.68-9.56c4.75-4,11-4.72,17.28-3.12a13.49,13.49,0,0,1,2.8,1,26.9,26.9,0,0,1,2.29,1.55v-4.64c-.77-.18-1.66-.73-2.5-1-6.6-2.29-14-2.23-19.95,1.47l-2.65,2A17.09,17.09,0,0,0,204.55,171.57Z" transform="translate(-198.15 -138.91)"/><path class="cls-1" d="M306.84,187.25c.22-.15,7.58-9.45,9.32-11.32,2-2.11,3.77-4.41,5.93-6.56,2.83-2.84,6.2-5.26,10.81-3.06,3.94,1.88,4.67,5.21,4.67,9.74a9,9,0,0,1-2,6.34c-1.58,2-3.9,2.78-6.66,2.78-4.28,0-8.17-6-8.17-10.4-.64.43-2.46,3.19-3.2,3.68.58,1.2.67,4,3.72,7,1.81,1.8,4.48,3.57,7.33,3.57a11.52,11.52,0,0,0,5.93-1.12c3.57-1.76,6.71-5.86,6.71-9.93,0-5.65.58-8.58-3.72-12.93a12.11,12.11,0,0,0-8.12-3.4c-3.24,0-6.59,2.08-8.36,3.65-2,1.76-6.66,6.91-8.66,9.27-.78.92-5.19,6.06-5.44,6.72C306.6,182.15,306.84,186,306.84,187.25Z" transform="translate(-198.15 -138.91)"/><path class="cls-1" d="M274,173.49c0,4.58-.26,8.17,3.4,11.8a11.79,11.79,0,0,0,12,3.27,20.82,20.82,0,0,0,2.22-1v-4.16c-6.52,4.37-13.76.1-13.76-6.08v-3.84a8.11,8.11,0,0,1,14-5.41,8.21,8.21,0,0,1,2.28,6.21v21.29H298V174.29c0-9.23-8.41-15.06-16.83-11.55a15,15,0,0,0-3.54,2.38,6.41,6.41,0,0,0-.64.8A11.37,11.37,0,0,0,274,173.49Z" transform="translate(-198.15 -138.91)"/><path class="cls-1" d="M244.09,173.17v22.41h3.84V173.17c0-5.27,3.11-10.74,7.91-12.74a16,16,0,0,1,12.19-.32,7.47,7.47,0,0,0,1.35.57c.25-.94,2.17-2.16,2.4-3-.28-.07-2-1.07-3.66-1.62a18.39,18.39,0,0,0-6.58-.78,17.72,17.72,0,0,0-14.25,7.68A18.67,18.67,0,0,0,244.09,173.17Z" transform="translate(-198.15 -138.91)"/><path class="cls-1" d="M250.49,174.61V195.1c0,.82,1.58.48,3.85.48V174.45c0-6.2,4.08-9.73,10-8.76.59.09,1.17.38,1.8.43.27-.56.44-1,.75-1.65a12.89,12.89,0,0,0,.85-1.71,6.61,6.61,0,0,1-1.14-.46,12.6,12.6,0,0,0-12.91,3.06C251.44,167.68,250.49,171.15,250.49,174.61Z" transform="translate(-198.15 -138.91)"/><path class="cls-1" d="M310.68,162.6c.61-.4,1.78-2.24,3.37-3.51.24-.19.47-.22.47-.65V138.91h-3.84Z" transform="translate(-198.15 -138.91)"/><path class="cls-1" d="M317.08,157.16c1-.54,1.75-1.36,2.94-2,.37-.21.91-.41.91-.85V138.91h-3.85Z" transform="translate(-198.15 -138.91)"/></svg>